HIERARCHY
ROOT Hips
{
   OFFSET 0.00000 0.00000 0.00000
   CHANNELS 6 Xposition Yposition Zposition Zrotation Xrotation Yrotation
   JOINT RightUpLeg
   {
      OFFSET -8.051219 -7.800363 0.091487
      CHANNELS 3 Zrotation Xrotation Yrotation
      JOINT RightLeg
      {
         OFFSET 0.000000 -39.980428 1.235430
         CHANNELS 3 Zrotation Xrotation Yrotation
         JOINT RightFoot
         {
            OFFSET 0.228194 -37.883157 -1.314531
            CHANNELS 3 Zrotation Xrotation Yrotation
            JOINT RightToes
            {
               OFFSET 0.036000 -3.973581 7.649189
               CHANNELS 3 Zrotation Xrotation Yrotation
               End Site
               {
                  OFFSET -0.072000 -0.123703 8.801811
               }
            }
         }
      }
   }
   JOINT Spine
   {
      OFFSET 0.000000 10.701450 0.000000
      CHANNELS 3 Zrotation Xrotation Yrotation
      JOINT Spine1
      {
         OFFSET 0.000000 23.091659 0.114897
         CHANNELS 3 Zrotation Xrotation Yrotation
         JOINT HEad
         {
            OFFSET 0.000000 7.860744 0.010207
            CHANNELS 3 Zrotation Xrotation Yrotation
            End Site
            {
               OFFSET -0.261000 11.496780 2.262555
            }
         }
         JOINT LeftShoulder1
         {
            OFFSET 8.091000 -0.326027 -0.198000
            CHANNELS 3 Zrotation Xrotation Yrotation
            JOINT LeftArm
            {
               OFFSET 9.254430 -0.003042 0.289911
               CHANNELS 3 Zrotation Xrotation Yrotation
               JOINT LeftForeArm
               {
                  OFFSET 29.490208 0.089230 -1.281906
                  CHANNELS 3 Zrotation Xrotation Yrotation
                  JOINT LeftHand
                  {
                     OFFSET 24.807870 0.076826 0.919944
                     CHANNELS 3 Zrotation Xrotation Yrotation
                     End Site
                     {
                        OFFSET 15.069871 -0.540000 1.352619
                     }
                  }
               }
            }
         }
         JOINT RightShoulder
         {
            OFFSET -8.091000 -0.326027 -0.198000
            CHANNELS 3 Zrotation Xrotation Yrotation
            JOINT RightArm
            {
               OFFSET -9.254430 -0.003042 0.289911
               CHANNELS 3 Zrotation Xrotation Yrotation
               JOINT RightForeArm
               {
                  OFFSET -29.607386 0.089230 -1.281906
                  CHANNELS 3 Zrotation Xrotation Yrotation
                  JOINT RightHand
                  {
                     OFFSET -24.742889 0.076826 0.919944
                     CHANNELS 3 Zrotation Xrotation Yrotation
                     End Site
                     {
                        OFFSET -14.968080 -0.540000 1.352619
                     }
                  }
               }
            }
         }
      }
   }
   JOINT LeftUpLeg
   {
      OFFSET 8.051219 -7.800363 0.091487
      CHANNELS 3 Zrotation Xrotation Yrotation
      JOINT LeftLeg
      {
         OFFSET 0.000000 -39.980428 1.235430
         CHANNELS 3 Zrotation Xrotation Yrotation
         JOINT LeftFoot
         {
            OFFSET -0.228194 -37.883157 -1.314531
            CHANNELS 3 Zrotation Xrotation Yrotation
            JOINT LeftToes
            {
               OFFSET -0.036000 -3.973581 7.649189
               CHANNELS 3 Zrotation Xrotation Yrotation
               End Site
               {
                  OFFSET 0.072000 -0.042703 8.801811
               }
            }
         }
      }
   }
}
MOTION
Frames: 14
Frame Time: 0.016667
44.5513 95.4152 -121.492 -0.274774 0.729082 -17.6365 -10.7626 -13.1982 -9.2905 -23.5066 50.0724 17.318 25.2477 0.181693 1.62171 0.0462049 0.000533403 0.662642 -1.17938 17.201 5.21515 -4.72859e-007 0.0143599 -4.76109e-009 -16.5354 7.98525 25.0713 -7.95139e-016 -3.18055e-015 -0 170.965 -25.3643 -168.33 -125.785 35.2949 -2.08182 6.77544 29.18 -1.91421 7.94453 6.24919 7.93864 128.198 -17.6443 99.8499 102.696 50.3773 12.463 -5.17617 30.4444 1.16341 -12.3094 -35.313 5.88062 38.5226 34.6333 -33.0635 30.4452 -2.80454 1.6126 -3.36951e-008 1.56033e-007 -4.88727e-009 
43.4093 93.9373 -122.372 -0.221888 0.385791 -17.653 -9.80184 -14.8139 -9.87513 -23.3534 55.7151 16.0723 15.7673 -0.211802 0.635317 0.0462049 0.000533403 0.662642 -1.33124 17.9326 5.60645 -0.0212829 0.00711795 0.0446877 -16.2428 7.23027 24.4237 7.95139e-016 -9.54166e-015 1.59028e-015 170.812 -24.5127 -167.834 -126.932 34.714 -1.7094 6.92628 29.1211 -1.87593 7.74104 5.86696 7.4455 128.395 -18.3239 100.316 103.982 50.2474 12.2817 -5.26588 30.4968 1.06731 -9.96358 -36.0774 6.10411 35.9676 36.5543 -32.6429 36.1751 -2.01604 1.60573 -3.36952e-008 1.56033e-007 -4.88727e-009 
41.7304 92.0258 -123.669 -0.352586 0.132473 -17.4769 -10.1583 -16.4768 -10.4531 -22.1981 61.9834 13.5168 14.1261 0.356301 0.740075 0.0462049 0.000533403 0.662642 -1.54004 18.564 6.0143 -0.08289 -0.0138569 0.174017 -15.8043 6.49942 23.8208 1.59028e-015 0 -1.59028e-015 171.219 -23.7859 -166.949 -127.794 34.0243 -1.35663 7.02417 29.2125 -1.7481 7.5085 5.51819 6.92587 128.634 -18.9586 100.73 105.23 50.1142 12.0679 -5.30286 30.4881 0.983384 -6.84787 -37.5836 5.72126 33.2286 39.7858 -32.469 41.6115 -1.31789 1.79439 -3.36952e-008 1.56033e-007 -4.88727e-009 
39.4383 89.623 -125.485 -0.78675 0.215093 -17.0047 -10.271 -19.2437 -11.9061 -20.609 69.9286 9.90023 8.36441 -0.0914451 0.759953 0.0462049 0.000533403 0.662642 -1.80332 19.0832 6.43762 -0.181461 -0.0474294 0.380849 -15.2097 5.79598 23.2893 -3.97569e-016 3.18055e-015 1.59028e-015 172.143 -23.208 -165.796 -128.332 33.2663 -1.05791 7.04141 29.3728 -1.60504 7.27175 5.16907 6.39321 128.884 -19.5325 101.035 106.402 49.9893 11.8261 -5.4129 30.4843 0.933438 -2.78232 -40.1366 4.46729 30.0685 44.3696 -32.2355 46.6225 -0.695077 2.23625 -3.36952e-008 1.56033e-007 -4.88727e-009 
36.6304 86.8247 -127.759 -1.48415 0.590927 -16.2622 -10.8052 -22.5143 -13.9918 -13.3385 78.6727 -0.386925 1.98247 -0.967983 1.05757 0.0462049 0.000533403 0.662642 -2.12607 19.4829 6.86686 -0.313637 -0.0924504 0.658011 -14.4625 5.14102 22.8583 3.97569e-016 6.36111e-015 -1.59028e-015 173.531 -22.814 -164.488 -128.529 32.4858 -0.848298 6.98966 29.6703 -1.4047 7.05255 4.79985 5.85574 129.11 -20.0327 101.178 107.454 49.8817 11.5738 -5.5341 30.4362 0.898226 2.32992 -43.5228 2.49739 25.505 49.8877 -31.0022 51.24 -0.0870497 2.81556 -3.36952e-008 1.56033e-007 -4.88727e-009 
33.5229 83.9105 -130.35 -2.40974 1.24084 -15.2911 -11.8793 -25.6694 -16.2678 13.9229 85.539 -30.0887 -0.946432 -2.60455 1.83764 0.0462049 0.000533403 0.662642 -2.45858 19.3674 7.04428 -0.476057 -0.14777 0.998307 -13.5972 4.86692 22.8882 3.97569e-016 -3.18055e-015 7.95139e-016 175.212 -22.9847 -163.434 -128.387 31.7304 -0.75569 6.86148 30.0485 -1.2126 6.87014 4.79733 5.59347 129.275 -20.4926 101.158 108.315 49.799 11.3387 -5.72114 30.39 0.890306 7.63098 -47.2807 0.457829 19.9316 54.8047 -28.8204 55.5136 0.670708 3.19372 -3.36952e-008 1.56033e-007 -4.88727e-009 
30.0333 81.218 -133.314 -3.49343 2.1291 -14.1489 -13.6187 -28.1408 -18.4221 103.287 84.0158 -121.107 -3.93779 -4.95432 2.31433 0.0462049 0.000533403 0.662642 -2.78262 18.7957 6.99525 -0.665362 -0.212236 1.39453 -12.6969 4.99071 23.3737 3.97569e-016 0 7.95139e-016 176.999 -23.809 -162.823 -127.925 31.0716 -0.929606 6.60399 30.8412 -0.757534 6.72808 4.85652 5.56294 129.197 -21.0169 100.73 108.839 49.7586 11.2797 -5.88383 30.4231 0.869269 13.9247 -50.5525 -2.00013 10.9481 57.9942 -23.23 59.0809 1.52729 3.42571 -3.36952e-008 1.56033e-007 -4.88727e-009 
26.4106 78.8006 -136.512 -4.69747 3.25151 -12.8536 -15.4582 -30.0084 -20.3124 123.072 78.1626 -142.199 -6.76964 -7.70342 2.57564 0.0462049 0.000533403 0.662642 -3.02267 17.815 6.74397 -0.878192 -0.284697 1.83948 -11.8414 5.48519 24.2468 -5.96354e-016 0 -0 178.833 -25.2051 -162.561 -127.219 30.5153 -1.29934 6.37012 31.3135 -0.685145 6.62404 5.18352 5.91661 128.911 -21.552 100.227 109.014 49.7654 11.3227 -5.96704 30.3347 0.809696 20.7395 -52.8383 -5.05547 0.774521 56.4475 -15.2452 60.7937 2.48045 3.4488 -3.36952e-008 1.56033e-007 -4.88727e-009 
22.6536 76.7065 -139.899 -5.9541 4.58512 -11.3985 -17.3663 -31.1945 -21.5967 129.795 72.441 -149.601 -7.11146 -10.6988 2.88267 0.0462049 0.000533403 0.662642 -3.13683 16.4786 6.29493 -1.11119 -0.363997 2.32597 -11.1173 6.31335 25.4465 -3.97569e-016 9.54166e-015 -7.95139e-016 -179.36 -27.0719 -162.527 -126.369 30.0694 -1.80459 6.1488 31.9643 -0.60159 6.53747 5.74795 6.68225 128.391 -22.1224 99.7013 108.858 49.8263 11.4578 -6.03546 30.2805 0.890887 27.514 -53.7709 -8.69282 -7.09705 50.2918 -7.63565 61.2839 4.17628 3.149 -3.36952e-008 1.56033e-007 -4.88727e-009 
18.8042 74.8687 -143.32 -7.2009 6.08469 -9.78938 -18.8092 -31.797 -22.1899 133.851 67.1798 -154.017 -6.33439 -14.1959 3.16522 0.0462049 0.000533403 0.662642 -3.18762 15.1821 6.01057 -1.361 -0.448982 2.84683 -10.5029 7.1544 26.5394 -1.88845e-015 0 -4.96962e-016 -177.433 -28.948 -162.255 -125.468 29.7297 -2.37893 6.02777 32.3358 -0.759095 6.50244 6.18138 7.5202 127.634 -22.7074 99.1748 108.455 49.9445 11.6545 -5.98235 30.1398 0.925314 33.8742 -53.4087 -12.5688 -11.961 42.1374 -2.29846 61.9352 6.80208 2.54953 -3.36952e-008 1.56033e-007 -4.88727e-009 
14.8667 73.3855 -146.788 -8.38979 7.68734 -8.03915 -19.5223 -31.8604 -21.995 136.588 62.5395 -156.739 -3.89419 -18.0495 3.63553 0.0462049 0.000533403 0.662642 -3.17308 13.9395 5.87138 -1.62426 -0.538494 3.39491 -10.0238 7.99193 27.5258 -3.97569e-016 0 3.97569e-016 -175.411 -30.7404 -161.686 -124.592 29.4819 -2.95971 5.98164 32.7104 -0.913044 6.48804 6.54603 8.3953 126.662 -23.3023 98.6751 107.914 50.1105 11.8909 -5.90395 29.9919 1.04504 40.0442 -52.213 -15.3266 -13.0948 32.2052 -0.426115 62.266 10.6671 1.16129 -3.36952e-008 1.56033e-007 -4.88727e-009 
10.4532 73.3625 -151.019 -9.45018 9.28933 -6.16057 -17.8287 -32.3903 -21.3901 132.097 59.1282 -152.904 -3.21994 -20.947 2.78879 0.0462049 0.000533403 0.662642 -3.14588 12.7805 5.84777 -1.89762 -0.631377 3.96311 -9.69 8.81726 28.4098 -1.19271e-015 -6.36111e-015 -1.59028e-015 -173.315 -32.3705 -160.786 -123.798 29.2952 -3.50502 6.03015 32.8373 -1.18248 6.46429 6.90265 9.26187 125.509 -23.9036 98.2181 107.343 50.3058 12.1469 -5.78849 29.7728 1.12229 50.8289 -55.6374 -12.7261 -15.6962 29.0558 6.86034 37.5172 8.26601 2.03924 -3.36952e-008 1.56033e-007 -4.88727e-009 
6.20583 73.092 -154.949 -10.3632 10.8362 -4.21398 -16.5439 -33.8935 -20.927 131.666 57.1923 -154.785 -1.49543 -24.6871 2.8696 0.0462049 0.000533403 0.662642 -3.11788 11.7109 5.95057 -2.17771 -0.726475 4.54436 -9.4937 9.62044 29.1938 -3.97569e-016 0 -7.95139e-016 -171.15 -33.7714 -159.541 -123.123 29.1346 -3.98238 6.11524 32.9068 -1.40472 6.4169 7.29245 10.0709 124.214 -24.5101 97.8014 106.83 50.5106 12.4071 -5.73319 29.5341 1.24206 61.5305 -54.8747 -8.99319 -13.6454 20.6234 11.3693 11.3412 9.71892 1.33565 -3.36952e-008 1.56033e-007 -4.88727e-009 
2.2594 72.0638 -158.454 -11.0797 12.2471 -2.25576 -15.1815 -35.8407 -20.0277 130.814 55.4205 -156.032 1.57188 -28.7699 3.62008 0.0462049 0.000533403 0.662642 -3.17809 10.7679 6.18189 -2.46119 -0.822634 5.13164 -9.39944 10.3793 29.8727 3.18055e-015 -3.18055e-015 -1.59028e-015 -168.997 -34.869 -157.966 -122.76 28.9503 -4.35191 6.249 32.6221 -1.62767 6.3965 7.8385 10.7498 122.759 -25.1411 97.4234 106.574 50.731 12.6233 -5.61755 29.0883 1.13982 67.7552 -53.3617 -5.94063 -10.8739 14.3715 15.0307 -4.45478 15.4327 0.680637 -3.36952e-008 1.56033e-007 -4.88728e-009 
